<svg xmlns="http://www.w3.org/2000/svg" viewBox="0 0 512 512">
  <rect width="512" height="512" rx="96" fill="#0e7c86"/>
  <path d="M64 240c28-24 56-24 84 0s56 24 84 0 56-24 84 0 56 24 84 0 56-24 84 0"
        fill="none" stroke="#ffffff" stroke-width="26" stroke-linecap="round" opacity="0.55"/>
  <path d="M64 312c28-24 56-24 84 0s56 24 84 0 56-24 84 0 56 24 84 0 56-24 84 0"
        fill="none" stroke="#ffffff" stroke-width="30" stroke-linecap="round" opacity="0.85"/>
  <path d="M64 384c28-24 56-24 84 0s56 24 84 0 56-24 84 0 56 24 84 0 56-24 84 0"
        fill="none" stroke="#ffffff" stroke-width="26" stroke-linecap="round" opacity="0.55"/>
  <circle cx="176" cy="140" r="34" fill="#ffffff"/>
</svg>
